<svg xmlns="http://www.w3.org/2000/svg" width="24" height="25" viewBox="0 0 24 25">
    <path fill="#BDC3C7" fill-rule="evenodd" d="M16.254 10.742C15.082 11.914 13.664 12.5 12 12.5c-1.664 0-3.082-.586-4.254-1.758-1.172-1.172-1.758-2.59-1.758-4.254 0-1.664.586-3.082 1.758-4.254C8.918 1.062 10.336.477 12 .477c1.664 0 3.082.585 4.254 1.757 1.172 1.172 1.758 2.59 1.758 4.254 0 1.664-.586 3.082-1.758 4.254zm-9.14 5.414c1.78-.422 3.41-.633 4.886-.633 1.477 0 3.105.211 4.887.633a15.382 15.382 0 0 1 4.886 2.074c1.477.961 2.215 2.051 2.215 3.27v3.023H.012V21.5c0-1.219.738-2.309 2.215-3.27a15.382 15.382 0 0 1 4.886-2.074z"/>
</svg>
