<svg xmlns="http://www.w3.org/2000/svg" width="18" height="17" viewBox="0 0 18 17">
    <g fill="#1E9C0E" fill-rule="nonzero">
        <path d="M10.182 14.515V.11H9.024C6.05.65 3.084 1.15.1 1.668v13.624c2.937.52 5.91 1.041 8.866 1.581h1.209v-2.358h.008zm-4.374-2.99a23.036 23.036 0 0 1-.972-2.445c-.269.79-.64 1.536-.943 2.31-.425 0-.85-.024-1.274-.04.497-.98.978-1.968 1.491-2.939-.435-1.004-.916-1.986-1.364-2.982l1.284-.073c.287.761.604 1.514.843 2.294.27-.828.637-1.619.965-2.407.439-.03.878-.058 1.319-.08a744.265 744.265 0 0 1-1.56 3.202c.536 1.08 1.074 2.172 1.611 3.262-.467-.037-.932-.067-1.4-.102zM10.671 1.978V3.01h2.055v1.525h-2.055v.837h2.055v1.524h-2.055v.837h2.055v1.522h-2.055v.836h2.055v1.511h-2.055v.885h2.055v1.476h-2.055v1.034h7.098V1.978h-7.098zm5.532 11.997h-2.988V12.5h2.988v1.476zm0-2.361h-2.988v-1.525h2.988v1.525zm0-2.361h-2.988V7.73h2.988v1.522zm0-2.361h-2.988V5.37h2.988v1.522zm0-2.361h-2.988V3.01h2.988v1.52z"/>
    </g>
</svg>
